<?xml version="1.0" encoding="utf-8"?>
<!-- Generator: Adobe Illustrator 26.2.1, SVG Export Plug-In . SVG Version: 6.00 Build 0)  -->
<svg version="1.1" id="Layer_1" xmlns="http://www.w3.org/2000/svg" xmlns:xlink="http://www.w3.org/1999/xlink" x="0px" y="0px"
	 viewBox="0 0 14 15" style="enable-background:new 0 0 14 15;" xml:space="preserve">
<style type="text/css">
	.st0{fill:url(#SVGID_1_);}
</style>
<linearGradient id="SVGID_1_" gradientUnits="userSpaceOnUse" x1="7" y1="1.1339" x2="7" y2="16.8325" gradientTransform="matrix(1 0 0 -1 0 16)">
	<stop  offset="8.580000e-02" style="stop-color:#8D29C1"/>
	<stop  offset="0.2383" style="stop-color:#942BBB"/>
	<stop  offset="0.4667" style="stop-color:#A92FAC"/>
	<stop  offset="0.7413" style="stop-color:#CA3793"/>
	<stop  offset="1" style="stop-color:#F03F77"/>
</linearGradient>
<path class="st0" d="M7,1.2c-3.7,0-6.7,3-6.7,6.7c0,2.6,1.5,4.9,3.8,6v0h0C5,14.3,6,14.6,7,14.6c3.7,0,6.7-3,6.7-6.7
	C13.7,4.2,10.7,1.2,7,1.2z M7,1.8c3.4,0,6.1,2.8,6.1,6.1c0,1-0.2,1.9-0.6,2.7c-0.9-0.4-1.8-0.7-2.7-1V4.5c0-0.2-0.1-0.3-0.3-0.3H8.4
	H5.5H4.4c-0.2,0-0.3,0.1-0.3,0.3v5.1c-0.9,0.2-1.7,0.5-2.6,0.9C1.1,9.8,0.9,8.9,0.9,7.9C0.9,4.5,3.6,1.8,7,1.8z M1.9,11.2
	c0.7-0.4,1.5-0.6,2.3-0.8v2.9C3.2,12.8,2.4,12.1,1.9,11.2z M5.5,13.9V7c0-0.8,0.6-1.4,1.4-1.4c0.8,0,1.4,0.6,1.4,1.4c0,0,0,0,0,0h0
	v2.4c-0.7-0.1-1.3-0.1-2-0.1l-0.5,0.8c0.8-0.1,1.7-0.1,2.5,0c0,0,0,0,0,0c0,0,0,0,0,0c0.1,0,0.7,0.1,1.1,0.2l-1.1,0.4v3.1
	C7.9,14,7.5,14,7,14C6.5,14,6,14,5.5,13.9z M9.8,13.3v-2.9c0.8,0.2,1.5,0.5,2.3,0.9C11.5,12.1,10.8,12.9,9.8,13.3z"/>
</svg>
